<?xml version="1.0" standalone="no"?>
<!DOCTYPE svg PUBLIC "-//W3C//DTD SVG 20010904//EN"
 "http://www.w3.org/TR/2001/REC-SVG-20010904/DTD/svg10.dtd">
<svg version="1.0" xmlns="http://www.w3.org/2000/svg"
 width="800.000000pt" height="800.000000pt" viewBox="0 0 800.000000 800.000000"
 preserveAspectRatio="xMidYMid meet">
<metadata>
Created by potrace 1.14, written by Peter Selinger 2001-2017
</metadata>
<g transform="translate(0.000000,800.000000) scale(0.100000,-0.100000)"
fill="#000000" stroke="none">
<path d="M4535 4259 c-81 -12 -149 -36 -171 -60 -29 -32 -25 -105 6 -147 32
-43 55 -47 126 -25 48 14 92 18 234 17 404 -1 710 -103 802 -265 12 -21 25
-39 28 -39 11 0 30 49 30 78 0 38 -51 139 -96 191 -52 60 -167 133 -266 169
-206 74 -501 109 -693 81z"/>
<path d="M3170 4034 c-219 -26 -352 -59 -477 -119 -137 -67 -266 -195 -280
-279 -8 -52 11 -51 65 3 52 52 127 95 227 129 195 66 567 88 772 46 83 -17 92
-15 146 46 40 43 49 90 24 123 -22 32 -113 48 -282 52 -88 2 -176 1 -195 -1z"/>
<path d="M3054 3431 c-103 -27 -197 -110 -233 -207 -28 -73 -29 -199 -2 -277
37 -107 118 -198 216 -244 84 -39 185 -39 266 -1 278 129 268 559 -16 699 -66
32 -170 46 -231 30z m166 -103 c149 -76 104 -268 -63 -268 -79 0 -146 64 -154
147 -5 43 -2 53 23 82 53 63 120 76 194 39z"/>
<path d="M4799 3397 c-108 -31 -219 -131 -261 -235 -18 -46 -22 -77 -23 -157
0 -92 3 -105 32 -167 64 -136 173 -204 313 -196 98 6 172 39 249 113 86 82
124 164 129 280 5 115 -18 181 -88 258 -86 94 -233 137 -351 104z m167 -108
c68 -42 80 -128 28 -196 -62 -82 -203 -86 -258 -7 -91 130 90 289 230 203z"/>
<path d="M5488 2649 c-26 -15 -22 -36 10 -47 15 -5 38 -18 51 -29 l25 -20 -39
-54 c-84 -118 -226 -274 -389 -426 -154 -143 -438 -330 -626 -410 -250 -107
-390 -126 -712 -98 -269 23 -318 17 -304 -38 10 -42 180 -103 383 -138 89 -15
308 -7 413 16 90 20 243 68 323 102 l59 24 54 -42 c76 -59 132 -123 227 -262
95 -139 154 -197 227 -220 63 -21 114 -21 201 -3 310 66 586 352 618 640 30
272 -111 451 -429 546 -41 13 -77 24 -79 26 -5 4 143 224 152 224 4 0 7 -6 7
-13 0 -21 34 -47 59 -47 34 0 59 17 77 52 14 27 15 39 5 84 -23 103 -84 144
-216 143 -44 0 -88 -4 -97 -10z"/>
</g>
</svg>
