<?xml version="1.0" standalone="no"?>
<!DOCTYPE svg PUBLIC "-//W3C//DTD SVG 20010904//EN"
 "http://www.w3.org/TR/2001/REC-SVG-20010904/DTD/svg10.dtd">
<svg version="1.0" xmlns="http://www.w3.org/2000/svg"
 width="600.000000pt" height="600.000000pt" viewBox="0 0 600.000000 600.000000"
 preserveAspectRatio="xMidYMid meet">
<metadata>
Created by potrace 1.14, written by Peter Selinger 2001-2017
</metadata>
<g transform="translate(0.000000,600.000000) scale(0.100000,-0.100000)"
fill="#000000" stroke="none">
<path d="M2317 5994 c-1 -1 -47 -4 -102 -8 -55 -3 -116 -9 -135 -12 -156 -24
-264 -48 -395 -88 -71 -21 -115 -37 -220 -79 -126 -51 -455 -241 -518 -300 -6
-7 -39 -34 -72 -60 -71 -58 -214 -196 -270 -262 -22 -26 -48 -57 -59 -69 -115
-130 -272 -391 -361 -601 -58 -136 -132 -401 -149 -530 -3 -22 -8 -51 -11 -65
-14 -71 -18 -268 -18 -915 0 -756 2 -829 34 -1012 145 -844 728 -1543 1534
-1841 112 -41 139 -50 172 -56 10 -2 47 -12 83 -21 36 -9 76 -19 90 -21 14 -2
34 -6 46 -9 12 -3 39 -7 60 -10 21 -3 53 -7 69 -10 102 -15 234 -18 895 -18
705 0 811 3 945 23 33 5 78 12 100 15 103 16 306 73 430 122 723 284 1269 900
1455 1642 16 64 31 134 35 155 3 21 7 48 10 60 20 98 27 234 28 594 1 215 -2
332 -8 332 -5 0 -4 4 4 9 11 7 11 9 0 14 -12 5 -12 6 0 6 10 1 11 4 2 15 -8
10 -9 16 -1 21 6 3 7 11 4 17 -4 6 -8 178 -9 382 -2 325 -6 429 -20 511 -36
219 -67 342 -127 505 -49 133 -103 245 -186 383 -280 467 -646 791 -1115 991
-93 39 -247 93 -322 112 -16 4 -32 8 -35 9 -64 18 -274 53 -371 61 -66 5
-1486 13 -1492 8z m-767 -2057 c25 -14 261 -150 525 -302 264 -152 505 -291
535 -308 30 -17 135 -77 232 -134 98 -57 182 -103 187 -103 5 0 130 68 276
150 147 83 269 150 272 150 3 0 17 8 31 18 23 16 306 176 522 295 30 17 93 52
139 79 46 26 85 48 87 48 2 0 27 14 56 31 29 18 67 40 85 50 l31 18 64 -56
c91 -79 236 -197 347 -281 53 -40 103 -78 112 -85 123 -97 514 -345 725 -462
l90 -49 -141 -84 c-150 -91 -474 -306 -592 -394 -39 -29 -82 -60 -94 -68 -39
-27 -332 -261 -395 -317 l-62 -53 -248 121 c-359 175 -618 301 -789 384 -82
40 -228 111 -324 159 -95 47 -180 86 -188 86 -9 0 -185 -84 -392 -186 -927
-460 -1123 -554 -1136 -547 -13 8 -73 57 -117 95 -13 11 -66 52 -118 91 -52
40 -97 75 -100 78 -18 20 -318 225 -417 284 -9 6 -22 13 -27 18 -77 55 -308
191 -471 277 -55 29 -104 56 -108 60 -4 4 46 39 113 79 220 132 520 336 755
515 44 34 82 63 85 66 3 3 39 32 80 65 41 33 80 65 86 70 6 6 35 30 64 55 30
25 76 64 103 88 33 29 53 40 60 34 7 -5 32 -21 57 -35z"/>
<path d="M1672 3216 c-120 -41 -140 -197 -35 -265 101 -65 237 13 227 132 -9
101 -100 164 -192 133z"/>
<path d="M4195 3220 c-75 -16 -120 -81 -113 -162 15 -151 236 -179 284 -37 13
40 14 53 3 91 -13 50 -53 95 -92 104 -47 11 -49 11 -82 4z"/>
</g>
</svg>
