<?xml version="1.0" standalone="no"?>
<!DOCTYPE svg PUBLIC "-//W3C//DTD SVG 20010904//EN"
 "http://www.w3.org/TR/2001/REC-SVG-20010904/DTD/svg10.dtd">
<svg version="1.0" xmlns="http://www.w3.org/2000/svg"
 width="431.000000pt" height="431.000000pt" viewBox="0 0 431.000000 431.000000"
 preserveAspectRatio="xMidYMid meet">
<metadata>
Created by potrace 1.14, written by Peter Selinger 2001-2017
</metadata>
<g transform="translate(0.000000,431.000000) scale(0.100000,-0.100000)"
fill="#000000" stroke="none">
<path d="M898 3851 c-40 -39 -48 -54 -48 -84 l0 -36 -47 14 -48 15 -52 -52
-53 -52 0 -434 0 -434 -27 6 c-16 3 -37 8 -48 11 -15 5 -34 -7 -73 -45 l-52
-52 0 -498 0 -499 53 -15 c28 -8 73 -20 99 -26 l47 -12 3 -102 3 -101 95 -25
95 -25 3 -102 c3 -103 3 -103 30 -109 15 -3 41 -10 57 -14 17 -5 49 -14 73
-20 l42 -11 0 -99 0 -99 53 -15 c80 -23 403 -109 597 -161 96 -25 198 -52 225
-60 28 -8 160 -44 295 -80 135 -36 376 -100 535 -143 l290 -79 53 51 c44 43
52 56 52 87 l0 37 47 -14 47 -14 53 52 c43 43 53 59 53 86 0 31 2 34 25 28 14
-3 36 -9 48 -12 19 -4 35 5 75 44 44 42 52 56 52 86 0 20 1 36 3 36 1 0 23 -7
48 -14 l46 -14 52 52 51 52 0 501 0 501 -97 24 -98 24 -3 502 -2 501 -43 11
c-23 6 -68 18 -99 27 l-57 15 -3 102 -3 101 -195 52 -195 52 -52 -52 c-43 -42
-53 -58 -53 -85 0 -31 -2 -34 -25 -28 -14 3 -36 9 -49 12 -19 4 -34 -5 -75
-46 -42 -42 -51 -57 -51 -86 0 -32 -2 -34 -27 -28 -16 4 -37 10 -49 15 -32 11
-122 -82 -126 -131 l-3 -36 -295 79 c-162 44 -318 86 -347 94 l-52 14 -3 101
-3 102 -97 25 -98 26 0 101 0 101 -97 24 -98 25 -3 102 -3 101 -42 11 c-23 6
-108 29 -188 51 -81 21 -153 39 -160 39 -8 -1 -35 -22 -61 -49z"/>
</g>
</svg>
